<svg xmlns="http://www.w3.org/2000/svg" viewBox="0 0 63.748 63.748"><circle cx="49.362" cy="24.063" r="4.38" fill="#008080"/><path fill="#008080" d="M61.136 27.761a209.376 209.376 0 01-14.295 3.13 4.61 4.61 0 00-.152-.92c-.963-3.468-6.215-4.583-7.489-5.088l2.457-2.671c1.832-1.99-1.132-4.968-2.97-2.97l-4.506 4.899c-.856.931-.842 2.68.426 3.297.704.343 1.424.657 2.149.96-4.802 1.433-7.063 1.619-7.169 1.627-9.448.816-17.768 1.551-27.216 2.368-3.347.289-3.065 5.498.309 5.207 5.61-.483 11.221-.972 16.831-1.454-5.143 1.29-10.287 2.581-15.429 3.869-3.282.822-1.89 5.885 1.395 5.062 6.599-1.653 32.015-7.385 36.833-9.18a209.813 209.813 0 0019.942-4.088c2.623-.673 1.51-4.721-1.116-4.048z"/><path fill="#008080" d="M32.806 27.891a3.4 3.4 0 01-.671-1.485 3.82 3.82 0 01-.048-.708l-.051-.072-31.101-4.9 3.774 9.927 24.747-2.139c.067-.006 1.148-.102 3.35-.623z"/></svg>