<svg xmlns="http://www.w3.org/2000/svg" fill="#426187" stroke="#426187" viewBox="0 0 490 490"><path d="M460.124 26.747a4.066 4.066 0 00-3.669-.547L333.743 67.674a4.054 4.054 0 00-2.762 3.848v16.711a4.056 4.056 0 002.762 3.849l122.712 41.473a4.077 4.077 0 003.669-.546 4.065 4.065 0 001.691-3.303V30.05c0-1.313-.63-2.542-1.691-3.303zM156.255 67.674L33.546 26.2a4.06 4.06 0 00-5.361 3.851v99.655c0 1.313.63 2.541 1.692 3.303a4.079 4.079 0 003.669.546l122.709-41.473a4.067 4.067 0 002.766-3.849V71.521a4.063 4.063 0 00-2.766-3.847zM179.911 490H310.09c1.35 0 2.653-.565 3.565-1.556a4.906 4.906 0 001.275-3.676l-3.854-49.982c-.19-2.511-2.325-4.478-4.844-4.478H183.767c-2.52 0-4.647 1.967-4.841 4.478l-3.855 49.979a4.88 4.88 0 001.274 3.68 4.871 4.871 0 003.566 1.555zm6.048-78.17h118.079a4.9 4.9 0 003.569-1.554 4.886 4.886 0 001.278-3.678l-3.86-49.973c-.196-2.514-2.315-4.484-4.844-4.484H189.814c-2.522 0-4.647 1.97-4.842 4.484l-3.856 49.973a4.867 4.867 0 001.276 3.678 4.882 4.882 0 003.567 1.554zm5.064-133.387l-3.856 49.989a4.879 4.879 0 001.28 3.675 4.87 4.87 0 003.562 1.557h105.982a4.866 4.866 0 004.842-5.232l-3.857-49.989c-.193-2.514-2.321-4.482-4.84-4.482h-98.268c-2.523 0-4.651 1.968-4.845 4.482zm100.919-23.084a4.875 4.875 0 003.564-1.557 4.894 4.894 0 001.274-3.675l-3.854-49.976c-.197-2.515-2.324-4.483-4.842-4.483h-86.169a4.876 4.876 0 00-4.841 4.483l-3.857 49.977a4.852 4.852 0 001.278 3.674 4.873 4.873 0 003.563 1.557h93.884zm-99.582-78.168h105.274a5.475 5.475 0 005.467-5.477V135.9a5.471 5.471 0 00-5.467-5.468H192.36a5.472 5.472 0 00-5.465 5.468v35.824a5.474 5.474 0 005.465 5.467zm5.469-10.934v-24.893h10.123v24.893h-10.123zm21.052 0v-24.893h10.12v24.893h-10.12zm21.055 0v-24.893h10.124v24.893h-10.124zm21.051 0v-24.893h10.131v24.893h-10.131zm21.055 0v-24.893h10.127v24.893h-10.127zm32.255-108.748C297.215 43.803 247.399.952 247.399.952c-.69-.588-1.54-.952-2.4-.952-.859 0-1.702.364-2.401.952 0 0-49.811 42.852-66.894 56.557-.956.771-1.603 1.916-1.603 3.237a4.062 4.062 0 004.064 4.063h18.91v43.084a4.06 4.06 0 004.061 4.063h87.726c2.24 0 4.064-1.82 4.064-4.063V64.809h18.911a4.065 4.065 0 004.059-4.063c.001-1.322-.643-2.467-1.599-3.237zm-69.298 37.496c-8.355 0-15.129-6.771-15.129-15.128s6.773-15.127 15.129-15.127c8.352 0 15.13 6.77 15.13 15.127 0 8.356-6.778 15.128-15.13 15.128z"/></svg>