<svg xmlns="http://www.w3.org/2000/svg" viewBox="0 0 48 48"><g data-name="Layer 2"><path fill="none" d="M0 0h48v48H0z" data-name="invisible box"/><g fill="#008080" data-name="Q3 icons"><path d="M45.9 24c0-2.8-3-5.4-8-7.2l-.9-.3v-.4c1.1-5.5.3-9.6-2.2-11.1s-6.2-.1-10.2 3.4L24 9l-.2-.2h-.2C19.5 5 15.5 3.7 13 5.1s-3.2 5.3-2.2 10.4a4.4 4.4 0 01.2 1l-1.1.4C5 18.6 2.1 21.2 2.1 24s3.2 5.6 8.2 7.4l.7.2a3.6 3.6 0 00-.2 1.1c-1 5-.1 8.8 2.2 10.2s6.5.1 10.5-3.4l.6-.5.8.8c2.8 2.4 5.6 3.7 7.8 3.7a4 4 0 002.2-.6c2.5-1.4 3.4-5.5 2.3-10.7V32a4.3 4.3 0 01-.1-.5h.3c5.3-1.9 8.5-4.6 8.5-7.5zM43 24c0 1.2-2.2 3.3-6.5 4.7h-.2a36.7 36.7 0 00-1.9-4.7c.7-1.6 1.3-3.2 1.8-4.7l.8.2c4 1.4 6 3.3 6 4.5zM26.8 37.6L26 37a43.1 43.1 0 003.2-4l5.1-.8c.1.2.1.4.2.5a17.5 17.5 0 01.2 5.5 4.1 4.1 0 01-1.2 2.3c-1 .6-3.7-.2-6.7-2.9zm-1.3-4.4L24.1 35l-1.6-1.8zm-13.7-14a31.9 31.9 0 001.9 4.8 33 33 0 00-1.9 4.9l-.6-.2a14.4 14.4 0 01-4.8-2.6A3.1 3.1 0 015 24c0-1.2 2-3.1 5.8-4.4zm10.7-4.4l1.5-1.7 1.5 1.7h-3zm11-7.3c1.1.6 1.7 3.6.8 8a.4.4 0 01-.1.3l-5-.8a43.1 43.1 0 00-3.2-4l.6-.5c3.2-2.8 5.8-3.6 6.9-3zM16.8 18.1l-.8 1.3-.7 1.3c-.3-.7-.5-1.4-.8-2.2zm-2.3 11.4c.3-.7.5-1.4.8-2.2l.7 1.3.8 1.3zM31.2 24a33.7 33.7 0 01-1.7 3.2c-.6 1.1-1.3 2.1-1.9 3.1h-7.2c-.7-1.1-1.4-2.1-1.9-3.1a31 31 0 01-1.7-3.2 24 24 0 011.7-3.2 30.5 30.5 0 011.9-3 43.3 43.3 0 017.2 0c.7 1 1.3 2 1.9 3a24 24 0 011.7 3.2zm.8-4.6l-.8-1.3 2.3.5a18 18 0 01-.8 2.1zm-.8 10.5l.8-1.3.7-1.4.9 2.3zm-9.3-19h.1l-3.2 4-5 .8c-.1-.3-.1-.5-.2-.8-.8-4.1-.2-6.9.8-7.4a1.3 1.3 0 01.9-.2c1.4 0 3.8 1 6.5 3.4zm-8.3 22.3a2.9 2.9 0 01.2-.9l5.1.7a33 33 0 003.2 4l-.2.2-.2.2a14.3 14.3 0 01-4.7 2.9 3.2 3.2 0 01-2.5.2c-1.1-.6-1.7-3.3-.9-7.3z"/><path d="M24 19.6a4.4 4.4 0 104.3 4.4 4.4 4.4 0 00-4.3-4.4z"/></g></g></svg>